<svg xmlns="http://www.w3.org/2000/svg" xmlns:xlink="http://www.w3.org/1999/xlink" version="1.1" x="0px" y="0px" viewBox="5.0 -10.0 100.0 135.0" enable-background="new 0 0 100 100" xml:space="preserve" height="100px" width="100px">
<g id="Guides">
</g>
<g id="Artwork">
	<path d="M93,23H7c-1.1,0-2,0.9-2,2v50c0,1.1,0.9,2,2,2h86c1.1,0,2-0.9,2-2V25C95,23.9,94.1,23,93,23z M9,28.8L39.3,50L9,71.2V28.8z    M50,52.6L13.4,27h73.3L50,52.6z M42.8,52.4l6,4.2c0.3,0.2,0.7,0.4,1.1,0.4s0.8-0.1,1.1-0.4l6-4.2L86.6,73H13.4L42.8,52.4z    M60.7,50L91,28.8v42.3L60.7,50z"/>
</g>
<g id="Layer_3">
</g>
<g id="Layer_4">
</g>
</svg>